HIERARCHY
ROOT Hips
{
	OFFSET 0.000000 0.000000 0.000000 
	CHANNELS 6 Xposition Yposition Zposition Zrotation Yrotation Xrotation
	JOINT LeftUpLeg
	{
		OFFSET 1.363060 -1.794630 0.839290 
		CHANNELS 3 Zrotation Yrotation Xrotation
		JOINT LeftLeg
		{
			OFFSET 2.448110 -6.726130 0.000000 
			CHANNELS 3 Zrotation Yrotation Xrotation
			JOINT LeftFoot
			{
				OFFSET 2.562200 -7.039590 0.000000 
				CHANNELS 3 Zrotation Yrotation Xrotation
				JOINT LeftToeBase
				{
					OFFSET 0.157640 -0.433110 2.322550 
					CHANNELS 3 Zrotation Yrotation Xrotation
					End Site
					{
						OFFSET 0.000000 0.000000 0.000000 
					}
				}
			}
		}
	}
	JOINT RightUpLeg
	{
		OFFSET -1.305520 -1.794630 0.839290 
		CHANNELS 3 Zrotation Yrotation Xrotation
		JOINT RightLeg
		{
			OFFSET -2.542530 -6.985550 0.000000 
			CHANNELS 3 Zrotation Yrotation Xrotation
			JOINT RightFoot
			{
				OFFSET -2.568260 -7.056230 0.000000 
				CHANNELS 3 Zrotation Yrotation Xrotation
				JOINT RightToeBase
				{
					OFFSET -0.164730 -0.452590 2.363150 
					CHANNELS 3 Zrotation Yrotation Xrotation
					End Site
					{
						OFFSET 0.000000 0.000000 0.000000 
					}
				}
			}
		}
	}
	JOINT Spine
	{
		OFFSET 0.028270 2.035590 -0.193380 
		CHANNELS 3 Zrotation Yrotation Xrotation
		JOINT Spine1
		{
			OFFSET 0.056720 2.048850 -0.042750 
			CHANNELS 3 Zrotation Yrotation Xrotation
			JOINT Neck1
			{
				OFFSET -0.054170 1.746240 0.172020 
				CHANNELS 3 Zrotation Yrotation Xrotation
				JOINT Head
				{
					OFFSET 0.104070 1.761360 -0.123970 
					CHANNELS 3 Zrotation Yrotation Xrotation
					End Site
					{
						OFFSET 0.000000 0.000000 0.000000 
					}
				}
			}
			JOINT LeftArm
			{
				OFFSET 3.362410 1.200890 -0.311210 
				CHANNELS 3 Zrotation Yrotation Xrotation
				JOINT LeftForeArm
				{
					OFFSET 4.983000 -0.000000 -0.000000 
					CHANNELS 3 Zrotation Yrotation Xrotation
					JOINT LeftHand
					{
						OFFSET 3.483560 -0.000000 -0.000000 
						CHANNELS 3 Zrotation Yrotation Xrotation
						JOINT LeftHandIndex1
						{
							OFFSET 0.715260 -0.000000 -0.000000 
							CHANNELS 3 Zrotation Yrotation Xrotation
							End Site
							{
								OFFSET 0.000000 0.000000 0.000000 
							}
						}
					}
				}
			}
			JOINT RightArm
			{
				OFFSET -3.136600 1.374050 -0.404650 
				CHANNELS 3 Zrotation Yrotation Xrotation
				JOINT RightForeArm
				{
					OFFSET -5.241900 -0.000000 -0.000000 
					CHANNELS 3 Zrotation Yrotation Xrotation
					JOINT RightHand
					{
						OFFSET -3.444170 -0.000000 -0.000000 
						CHANNELS 3 Zrotation Yrotation Xrotation
						JOINT RightHandIndex1
						{
							OFFSET -0.622530 -0.000000 -0.000000 
							CHANNELS 3 Zrotation Yrotation Xrotation
							End Site
							{
								OFFSET 0.000000 0.000000 0.000000 
							}
						}
					}
				}
			}
		}
	}
}
MOTION
Frames: 6
Frame Time: 0.041667
-11.049252 14.591600 -4.654436 179.255810 83.042194 -168.170327 -12.384853 -15.293065 -72.522297 17.516742 22.231610 82.056631 0.572283 -2.529976 -5.026060 0.800500 -5.710300 -15.946200 22.811553 15.831925 -57.869374 -16.553779 -22.176159 79.742340 -1.892506 -4.244293 -29.619742 -0.024100 -1.003200 2.757600 1.144568 -1.183158 1.154650 -2.324866 -0.069137 -6.566607 6.727617 -0.373290 -6.201553 0.626400 -0.449100 -2.684000 -69.989004 -5.633432 33.198154 24.398428 -34.043349 -8.905591 -0.721110 -0.809463 -24.072078 -7.125000 0.000000 0.000000 70.417761 8.270156 32.105848 -24.863596 34.967950 -8.840845 0.949914 -0.086026 -6.020836 7.125000 0.000000 0.000000 
-10.927406 14.584632 -4.640295 179.448180 83.027071 -168.045917 -12.866034 -15.362348 -72.731648 16.667516 22.108146 79.689557 0.540596 -2.087578 -5.615626 0.825000 -5.795200 -16.191400 23.156847 15.661210 -57.403208 -16.661839 -22.185238 80.035982 -1.992359 -4.043626 -30.024386 -0.019900 -0.911500 2.505300 1.143336 -1.165478 1.155895 -2.320972 -0.059010 -6.570861 6.745397 -0.370705 -6.177691 0.633800 -0.447000 -2.671700 -70.015082 -5.548240 33.202791 24.334315 -33.994203 -8.870211 -0.722805 -0.809138 -24.014895 -7.125000 0.000000 0.000000 70.439329 8.253428 32.125849 -24.868074 34.972367 -8.842214 0.948945 -0.087869 -6.017006 7.125000 0.000000 0.000000 
-10.806175 14.579201 -4.627075 179.699987 83.002231 -167.848389 -13.361249 -15.412083 -72.884498 15.797838 21.946919 77.253598 0.509143 -1.658541 -6.156097 0.841500 -5.851300 -16.353500 23.498897 15.481868 -56.940842 -16.761257 -22.191752 80.304720 -2.092007 -3.826336 -30.405876 -0.015400 -0.801500 2.202800 1.143472 -1.152642 1.156096 -2.317813 -0.051728 -6.573685 6.760517 -0.368955 -6.159788 0.639500 -0.445700 -2.663900 -70.044963 -5.461018 33.198208 24.261014 -33.936971 -8.829594 -0.724103 -0.808702 -23.960375 -7.125000 0.000000 0.000000 70.464284 8.235216 32.137864 -24.869901 34.974718 -8.842152 0.948260 -0.087745 -6.026742 7.125000 0.000000 0.000000 
-10.685046 14.574794 -4.614778 179.981971 82.971934 -167.607415 -13.873389 -15.443250 -72.986367 14.916095 21.746669 74.767166 0.476082 -1.227585 -6.655363 0.859000 -5.910400 -16.524600 23.834934 15.290651 -56.487355 -16.854263 -22.196170 80.554309 -2.189620 -3.598390 -30.762103 -0.011100 -0.679100 1.866300 1.144519 -1.143806 1.155957 -2.315908 -0.046755 -6.572488 6.772486 -0.368014 -6.147611 0.643500 -0.445200 -2.660200 -70.078108 -5.373825 33.186505 24.181523 -33.874214 -8.785628 -0.725012 -0.808766 -23.913103 -7.125000 0.000000 0.000000 70.491861 8.217170 32.140591 -24.866542 34.973016 -8.839800 0.948463 -0.086382 -6.047788 7.125000 0.000000 0.000000 
-10.563918 14.570490 -4.603915 -179.648206 82.944277 -167.263780 -14.392829 -15.452526 -73.043479 14.031484 21.506925 72.250786 0.441717 -0.799971 -7.110768 0.878000 -5.973600 -16.707900 24.171346 15.092251 -56.047772 -16.942932 -22.199369 80.791368 -2.285456 -3.365200 -31.099146 -0.007300 -0.551100 1.514500 1.146113 -1.134818 1.155931 -2.318785 -0.042018 -6.564047 6.780378 -0.366380 -6.136783 0.644700 -0.444600 -2.657100 -70.112397 -5.284022 33.172985 24.100878 -33.810972 -8.741349 -0.725811 -0.809813 -23.874018 -7.125000 0.000000 0.000000 70.520659 8.199325 32.140020 -24.857440 34.966714 -8.834247 0.948182 -0.085400 -6.075833 7.125000 0.000000 0.000000 
-10.442687 14.565469 -4.594794 -179.202855 82.926711 -166.825210 -14.915109 -15.441345 -73.067306 13.152947 21.228923 69.724935 0.405923 -0.373643 -7.530204 0.900200 -6.046900 -16.920500 24.503626 14.890569 -55.633033 -17.029977 -22.201775 81.023603 -2.378004 -3.130830 -31.414130 -0.004200 -0.419400 1.152500 1.148055 -1.123466 1.156217 -2.325763 -0.036525 -6.546934 6.784528 -0.363617 -6.127470 0.643800 -0.443500 -2.654700 -70.151051 -5.195059 33.157478 24.018377 -33.746237 -8.696237 -0.726744 -0.811599 -23.839799 -7.125000 0.000000 0.000000 70.547428 8.183722 32.136577 -24.841629 34.955056 -8.825411 0.947892 -0.085790 -6.099598 7.125000 0.000000 0.000000 
